<svg width="24" height="24" viewBox="0 0 24 24" fill="none" xmlns="http://www.w3.org/2000/svg">
<path d="M12 24C18.6274 24 24 18.6274 24 12C24 5.37258 18.6274 0 12 0C5.37258 0 0 5.37258 0 12C0 18.6274 5.37258 24 12 24Z" fill="white"/>
<path fill-rule="evenodd" clip-rule="evenodd" d="M22.3043 10.3247L21.9149 10.6401C20.6176 11.4863 19.1675 12.0858 17.6411 12.407C13.5834 13.4587 10.6297 13.6691 7.27537 14.5104C6.60262 14.6735 5.94414 14.8879 5.30608 15.1519C5.95642 15.4783 6.62468 15.7697 7.30785 16.0248C8.61129 15.6313 9.94198 15.3292 11.2897 15.1206C12.0472 14.9941 14.3626 14.5839 16.0396 14.2266C19.0583 13.5743 23.4837 12.1755 22.3047 10.3349V10.3247H22.3043ZM20.3675 6.50639C19.6228 6.17689 18.8522 5.90613 18.063 5.69671C17.6351 6.06165 17.1492 6.35646 16.6242 6.56962C17.5573 6.76863 18.4783 7.01794 19.383 7.31641C19.5454 7.40037 20.2701 6.7168 20.3892 6.55908L20.3675 6.50639ZM5.55508 10.5664C9.49366 9.39909 13.6484 9.0415 17.8464 7.91603C16.4755 7.45108 15.0114 7.30703 13.5726 7.49555C10.9775 7.79708 8.41431 8.31787 5.91199 9.05204C4.98165 9.32533 0.091085 10.7136 1.49777 12.6698C1.49777 12.6698 2.3415 11.513 5.55508 10.5664ZM2.82832 17.2661C2.82832 17.6234 3.03402 17.9494 3.52084 18.3175C3.5837 18.1261 3.68288 17.948 3.81314 17.7917C3.47768 17.6219 3.14916 17.4394 2.82832 17.2447V17.2658V17.2661ZM4.72183 17.087C5.06566 16.8834 5.42793 16.711 5.80408 16.5717C5.24113 16.3405 4.72183 16.088 4.07261 15.8144C3.82676 15.9612 3.59802 16.1339 3.39092 16.3297C3.83206 16.5922 4.27942 16.8448 4.73265 17.087H4.72218H4.72183ZM19.8699 8.67337C18.7195 9.16951 17.5242 9.56029 16.2994 9.84064C14.9577 10.1772 11.6899 10.6507 8.17358 11.4182C7.09133 11.6602 4.05096 12.3754 2.5685 13.6481C2.90725 13.9044 3.26939 14.1294 3.65075 14.3211C4.48245 13.8346 5.38819 13.4796 6.3342 13.2694C8.20998 12.7805 10.1141 12.4012 12.0364 12.1334C14.6046 11.7283 17.1368 11.1305 19.6104 10.3454C20.2247 10.1361 20.8015 9.83445 21.3199 9.45144C20.8765 9.1269 20.3884 8.86485 19.8699 8.67303V8.67337ZM21.0384 7.95818C21.4126 8.12613 21.7742 8.31945 22.1206 8.53672C22.3693 8.06321 22.2177 7.75831 21.6984 7.31641C21.5025 7.55606 21.2774 7.77157 21.0279 7.95818H21.0384ZM2.64463 15.1308C2.34271 14.9581 2.04676 14.7756 1.75724 14.5839C1.60568 14.9309 1.89798 15.3096 2.22241 15.4989C2.35512 15.368 2.49621 15.245 2.64463 15.1308ZM19.4588 4.17184C19.3298 4.47007 19.1381 4.73879 18.8962 4.96079C19.4983 5.1291 20.0906 5.32927 20.6703 5.5604C20.5949 5.02401 19.9781 4.5087 19.4585 4.17184H19.4588ZM0.86986 7.5479C5.01413 4.82414 9.59144 3.23638 17.338 4.58246C17.5409 4.48921 17.7177 4.34966 17.8533 4.17568C17.989 4.00169 18.0794 3.79841 18.1171 3.5831C15.9466 2.86459 13.6547 2.55766 11.3655 2.67892C8.16784 2.82514 5.03931 3.63551 2.18993 5.05562L2.89328 4.16164C5.73776 2.77761 8.84878 1.9895 12.0255 1.84816C14.0965 1.75978 16.1674 2.03444 18.1388 2.65784C17.9006 2.19522 17.3488 1.96373 16.5372 1.60614C13.9299 0.428325 9.07144 0.32295 5.10074 2.0793C5.62174 1.72996 6.16769 1.41723 6.73442 1.14351C8.67173 0.327994 10.7705 -0.0599567 12.8801 0.00750669C15.1923 0.00270614 17.4229 0.839248 19.134 2.35294C19.3593 2.61267 19.522 2.9181 19.6104 3.24692C20.5701 3.64962 21.3893 4.31433 21.9691 5.16066C22.1386 5.52997 22.195 5.93907 22.1315 6.33881C22.5291 6.56719 22.8722 6.87557 23.1376 7.24333C23.3185 7.51793 23.44 7.82561 23.4945 8.14751C23.5443 8.37902 23.5421 8.61829 23.488 8.84888C23.4339 9.07948 23.3291 9.29593 23.1809 9.48339C23.5699 9.73033 23.8572 10.1026 23.9925 10.5351C24.0281 11.0249 23.9368 11.5157 23.7269 11.9622C23.517 12.4088 23.1952 12.7969 22.7911 13.0909C21.4391 14.0994 19.8944 14.8359 18.247 15.2576C15.001 16.0778 12.1443 16.4248 9.86139 16.8457C11.386 17.2405 12.9581 17.435 14.5358 17.4239C17.7148 17.3291 20.8315 16.542 23.6569 15.1206C23.6569 15.1206 23.5594 15.4258 23.462 15.6886C20.3794 17.3348 16.9262 18.2128 13.4102 18.2444C11.4926 18.1751 9.59317 17.8567 7.76219 17.2978C7.22403 17.4307 6.6988 17.6105 6.19347 17.8341C8.36938 18.8284 10.7273 19.3898 13.1291 19.4855C16.3338 19.5519 19.5218 19.0199 22.5208 17.9184C22.3693 18.0656 22.2938 18.3073 22.1423 18.444C19.9561 19.4271 17.6146 20.0423 15.2171 20.2635C13.2948 20.3596 11.3674 20.2433 9.472 19.9168C7.99722 19.6126 6.56569 19.1357 5.20865 18.4966C4.98126 18.6617 4.82973 18.9073 4.78678 19.1802C10.1212 21.9777 15.1092 22.041 20.7897 20.2319L20.2704 20.7262C17.9248 21.7917 15.36 22.321 12.772 22.2736C10.184 22.2263 7.64134 21.6035 5.33856 20.4529C5.20707 20.4003 5.08043 20.337 4.96 20.2635C6.69731 21.9726 8.99385 23.0366 11.4521 23.2715C13.6749 23.4395 15.9091 23.1493 18.0088 22.4196L17.0677 22.9139C15.2829 23.7562 13.2994 24.1193 11.3222 23.9656C8.70756 23.86 6.22067 22.8362 4.32161 21.0838C3.90044 20.68 3.62031 20.1577 3.52084 19.5905C2.74934 19.2229 2.10041 18.6505 1.64898 17.9392C1.43549 17.5488 1.38135 17.0944 1.49742 16.6669C1.51693 16.5435 1.55334 16.4232 1.60568 16.3093C1.18406 16.0623 0.816449 15.7371 0.523776 15.3521C0.378182 15.0782 0.312285 14.7708 0.333213 14.4631C0.354141 14.1553 0.461096 13.8591 0.642513 13.6063C0.4185 13.3745 0.23579 13.108 0.10191 12.8176C0.00805575 12.5073 -0.0213856 12.1819 0.0153026 11.8604C0.112292 11.2753 0.382999 10.7306 0.794077 10.2934C2.01124 9.08384 3.54546 8.2218 5.2303 7.8008C6.79673 7.2916 8.39399 6.87713 10.013 6.55976C12.1212 6.2446 14.2092 5.81266 16.2669 5.26603C13.5595 4.73703 10.7705 4.74376 8.0658 5.2858C5.36115 5.82785 2.79623 6.89413 0.523776 8.42115L0.86986 7.54824V7.5479Z" fill="#1D5378"/>
</svg>
