<svg width="24" height="24" viewBox="0 0 24 24" fill="none" xmlns="http://www.w3.org/2000/svg">
<rect width="24" height="24" rx="12" fill="white"/>
<path d="M12 0C9.62644 1.52244e-07 7.3062 0.703896 5.33271 2.02266C3.35923 3.34143 1.82116 5.21583 0.913039 7.40879C0.00491446 9.60175 -0.232474 12.0148 0.230897 14.3427C0.694268 16.6706 1.83758 18.8087 3.51624 20.4868C5.1949 22.1649 7.3335 23.3074 9.66156 23.7699C11.9896 24.2325 14.4025 23.9942 16.5952 23.0853C18.7878 22.1764 20.6617 20.6377 21.9797 18.6637C23.2978 16.6898 24.0009 14.3693 24 11.9957C23.9989 8.81385 22.7341 5.7627 20.4838 3.5132C18.2334 1.26369 15.1819 -2.04089e-07 12 0V0ZM9.45989 17.884C9.58736 17.9552 9.6984 18.0525 9.78578 18.1695C9.87316 18.2865 9.93492 18.4206 9.96705 18.563C10.033 18.8402 9.98668 19.1322 9.83811 19.3754C9.74786 19.5205 9.62077 19.6391 9.46977 19.7191C9.31878 19.7991 9.14927 19.8377 8.97851 19.8309C8.77639 19.8288 8.57707 19.7834 8.39399 19.6977L7.83095 19.4312C6.612 18.7599 5.59926 17.7688 4.90175 16.5646C4.20424 15.3604 3.84839 13.9888 3.8725 12.5974V11.394C3.85127 9.99942 4.2106 8.62546 4.91186 7.41985C5.61311 6.21424 6.62975 5.2226 7.85244 4.55158L8.40258 4.2937C8.58595 4.20937 8.78528 4.1654 8.98711 4.16476C9.1578 4.15841 9.32714 4.19719 9.47806 4.27718C9.62897 4.35716 9.75613 4.47553 9.84671 4.62034C9.92036 4.73989 9.96967 4.87282 9.9918 5.01149C10.0139 5.15016 10.0084 5.29183 9.97565 5.42837C9.94422 5.5739 9.8819 5.71099 9.79293 5.83037C9.70395 5.94975 9.59038 6.04864 9.45989 6.12034C8.74765 6.45563 8.14711 6.98906 7.73017 7.65679C7.31322 8.32452 7.09752 9.09825 7.10889 9.88538V14.1447C7.10354 14.9272 7.322 15.695 7.73854 16.3575C8.15508 17.02 8.75233 17.5496 9.45989 17.884ZM20.1103 12.5974C20.1336 13.9897 19.7764 15.3619 19.0774 16.5661C18.3783 17.7704 17.3638 18.761 16.1433 19.4312L15.5802 19.6977C15.3973 19.7839 15.1979 19.8294 14.9957 19.8309C14.8249 19.8377 14.6554 19.7991 14.5044 19.7191C14.3534 19.6391 14.2264 19.5205 14.1361 19.3754C13.9918 19.1307 13.9457 18.8404 14.0072 18.563C14.0393 18.4206 14.1011 18.2865 14.1884 18.1695C14.2758 18.0525 14.3869 17.9552 14.5143 17.884C15.2283 17.5511 15.8315 17.02 16.2521 16.354C16.6727 15.6881 16.893 14.9152 16.8868 14.1275V9.88538C16.895 9.10058 16.6773 8.32998 16.2597 7.66546C15.8421 7.00095 15.2422 6.47056 14.5315 6.13753C14.4005 6.06544 14.286 5.96657 14.1957 5.84735C14.1054 5.72813 14.0411 5.59123 14.0072 5.44556C13.9451 5.16964 13.9913 4.88044 14.1361 4.63754C14.2264 4.49242 14.3534 4.3738 14.5044 4.29378C14.6554 4.21375 14.8249 4.17516 14.9957 4.18195C15.1976 4.18205 15.397 4.22604 15.5802 4.31089L16.1304 4.56877C17.3537 5.23906 18.3709 6.23054 19.0722 7.43631C19.7736 8.64209 20.1325 10.0164 20.1103 11.4112V12.5974Z" fill="#00B3E1"/>
</svg>
