<svg width="24" height="24" viewBox="0 0 24 24" fill="none" xmlns="http://www.w3.org/2000/svg">
<path d="M0 12C0 18.6274 5.37258 24 12 24C18.6274 24 24 18.6274 24 12C24 5.37258 18.6274 0 12 0C5.37258 0 0 5.37258 0 12Z" fill="#FAEB00"/>
<path fill-rule="evenodd" clip-rule="evenodd" d="M11.9841 14.5702L17.3958 20L19.515 17.8722L14.099 12.4272L15.1542 11.3734V9.25525L15.9069 8.49994L15.909 10.2546L16.6457 10.9828L19.286 8.3235L20 9.03206C20 8.576 19.8683 7.00181 18.6092 5.76758C17.2013 4.38786 15.7948 5.19293 15.3074 5.68328L12.7562 8.24944L13.3914 8.8885L11.9841 10.2969L10.5806 8.8885L11.2168 8.24944L8.66332 5.68328C8.17889 5.19293 6.77058 4.38786 5.35905 5.76758C4.10674 7.00181 4 8.57744 4 9.03463L4.68591 8.3235L7.3272 10.9828L8.06382 10.2472V8.49994L8.81834 9.25525L8.81594 11.367L9.87354 12.4279L4.51014 17.817L6.62695 19.9434L11.9841 14.5702Z" fill="black"/>
</svg>
