<svg width="24" height="24" viewBox="0 0 24 24" fill="none" xmlns="http://www.w3.org/2000/svg">
<path d="M14.3914 0.253906V6.47621H11.9791C8.93167 6.47621 6.47632 8.93136 6.47632 11.9793C6.47632 15.0261 8.93167 17.4813 11.9779 17.4813H14.3914V23.7036C19.893 22.6455 24 17.8202 24 11.9782C24 6.1798 19.8942 1.35453 14.3914 0.253906Z" fill="#003791"/>
<path d="M11.9791 19.4275C7.87321 19.4275 4.52809 16.0843 4.52809 11.9793C4.52809 7.87439 7.87208 4.53001 11.9768 4.53001H12.4432V0H11.9779C5.37597 0 0 5.37559 0 11.9782C0 18.6244 5.37597 24 11.9791 24H12.4443V19.4298H11.9791V19.4275Z" fill="#FF4B5F"/>
</svg>
