<svg width="8" height="5" viewBox="0 0 8 5" fill="none" xmlns="http://www.w3.org/2000/svg">
<path fill-rule="evenodd" clip-rule="evenodd" d="M7.79688 3.89844C7.79688 3.96094 7.76563 4.03125 7.71876 4.07813L7.32813 4.46876C7.28126 4.51563 7.21876 4.54688 7.14845 4.54688C7.08595 4.54688 7.01563 4.51563 6.96876 4.46876L3.89844 1.39844L0.828126 4.46876C0.781251 4.51563 0.710938 4.54688 0.648438 4.54688C0.585938 4.54688 0.515626 4.51563 0.468751 4.46876L0.0781251 4.07813C0.03125 4.03125 0 3.96094 0 3.89844C0 3.83594 0.03125 3.76563 0.0781251 3.71875L3.71875 0.0781251C3.76563 0.03125 3.83594 0 3.89844 0C3.96094 0 4.03125 0.03125 4.07813 0.0781251L7.71876 3.71875C7.76563 3.76563 7.79688 3.83594 7.79688 3.89844Z" fill="#343434"/>
</svg>
